<?xml version="1.0" encoding="UTF-8"?>
<svg width="124px" height="124px" viewBox="0 0 124 124" version="1.1" xmlns="http://www.w3.org/2000/svg" xmlns:xlink="http://www.w3.org/1999/xlink">
    <!-- Generator: Sketch 49 (51002) - http://www.bohemiancoding.com/sketch -->
    <title>logo</title>
    <desc>Created with Sketch.</desc>
    <defs></defs>
    <g id="Page-1" stroke="none" stroke-width="1" fill="none" fill-rule="evenodd">
        <g id="logo" fill-rule="nonzero">
            <circle id="Oval" fill="#FFFFFF" cx="61.999999" cy="61.999999" r="61.0796956"></circle>
            <g id="Group" transform="translate(24.479999, 27.339000)" fill="#020202">
                <g transform="translate(3.139999, 0.000000)" id="Shape">
                    <g>
                        <path d="M45.144,56.95 C44.0373333,56.95 43.0773333,56.6633333 42.264,56.09 C41.3506667,55.37 40.894,54.5066667 40.894,53.5 C39.794,50.6666667 39.1106667,48.36 38.844,46.58 C38.5773333,44.8066667 37.654,39.7433333 36.074,31.39 C34.874,25.1033333 34.0806667,20.04 33.694,16.2 C31.5806667,23.9733333 29.324,30.5266667 26.924,35.86 C24.1906667,42.1 22.4173333,46.97 21.604,50.47 C21.8906667,50.9966667 22.034,51.5266667 22.034,52.06 C22.034,53.1133333 21.554,53.9766667 20.594,54.65 C19.7273333,55.27 18.7673333,55.58 17.714,55.58 C14.5473333,55.58 12.964,54.1666667 12.964,51.34 L11.884,46.87 L8.064,29.66 C6.53066667,23.8533333 3.914,15.5266667 0.214,4.68 C0.074,4.15333333 0.004,3.67333333 0.004,3.24 C0.004,1.08 1.22733333,0 3.674,0 C5.20733333,0 6.384,0.84 7.204,2.52 C7.63066667,3.33333333 8.494,5.75666667 9.794,9.79 C11.134,14.0166667 12.5006667,19.13 13.894,25.13 L17.354,40.61 C19.8473333,34.8033333 22.344,27.7233333 24.844,19.37 C26.3306667,14.2833333 27.4806667,10.7533333 28.294,8.78 C30.4073333,3.64666667 32.4473333,1.08 34.414,1.08 C36.094,1.08 37.2706667,1.89666667 37.944,3.53 C38.7573333,5.54333333 39.5973333,10.3433333 40.464,17.93 C40.944,21.77 41.7606667,26.4 42.914,31.82 L45.934,45.65 C49.054,38.0633333 52.9673333,27.84 57.674,14.98 C57.9606667,14.3066667 58.5606667,12.0966667 59.474,8.35 C60.1473333,5.61666667 60.964,3.48 61.924,1.94 C62.784,0.646666667 63.8873333,0 65.234,0 C67.5873333,0 68.764,1.17666667 68.764,3.53 C68.764,3.91 68.404,5.08666667 67.684,7.06 L66.244,10.87 L64.294,17.14 L53.854,42.48 C52.894,45.2666667 51.264,49.3233333 48.964,54.65 C48.0973333,56.1833333 46.824,56.95 45.144,56.95 Z"></path>
                    </g>
                </g>
                <g transform="translate(0.000000, 60.638000)" id="Shape">
                    <g>
                        <path d="M0.004,0.674 L1.664,8.544 L2.854,8.544 L4.024,3.804 C4.084,3.504 4.154,3.204 4.214,2.914 C4.284,2.614 4.354,2.324 4.414,2.014 L4.464,2.014 C4.524,2.324 4.594,2.614 4.654,2.914 C4.714,3.204 4.774,3.504 4.844,3.804 L6.034,8.544 L7.234,8.544 L8.864,0.674 L7.904,0.674 L7.084,4.954 C7.004,5.384 6.924,5.804 6.854,6.224 C6.784,6.644 6.704,7.064 6.634,7.504 L6.584,7.504 C6.494,7.064 6.394,6.644 6.304,6.214 C6.204,5.794 6.104,5.374 6.014,4.954 L4.924,0.674 L4.004,0.674 L2.914,4.954 C2.824,5.384 2.734,5.804 2.644,6.224 C2.544,6.644 2.454,7.064 2.364,7.504 L2.314,7.504 C2.244,7.064 2.164,6.644 2.084,6.224 C2.004,5.814 1.934,5.384 1.864,4.954 L1.034,0.674 L0.004,0.674 Z M9.704,5.644 C9.704,6.124 9.784,6.544 9.924,6.924 C10.064,7.304 10.264,7.614 10.514,7.874 C10.774,8.134 11.064,8.334 11.404,8.474 C11.744,8.614 12.114,8.684 12.504,8.684 C12.904,8.684 13.264,8.624 13.574,8.504 C13.884,8.384 14.164,8.244 14.424,8.084 L14.074,7.444 C13.864,7.574 13.634,7.684 13.394,7.774 C13.164,7.854 12.904,7.894 12.624,7.894 C12.064,7.894 11.614,7.714 11.264,7.344 C10.914,6.974 10.724,6.474 10.684,5.844 L14.614,5.844 C14.644,5.704 14.654,5.524 14.654,5.304 C14.654,4.884 14.604,4.514 14.494,4.174 C14.394,3.844 14.244,3.554 14.044,3.314 C13.854,3.074 13.604,2.884 13.314,2.764 C13.024,2.634 12.694,2.564 12.324,2.564 C11.984,2.564 11.664,2.634 11.354,2.774 C11.044,2.914 10.764,3.124 10.514,3.384 C10.274,3.644 10.074,3.974 9.934,4.354 C9.784,4.734 9.704,5.164 9.704,5.644 Z M13.784,5.194 L10.664,5.194 C10.704,4.904 10.764,4.634 10.864,4.414 C10.964,4.184 11.094,3.994 11.244,3.834 C11.394,3.674 11.564,3.554 11.754,3.474 C11.944,3.394 12.144,3.344 12.344,3.344 C12.804,3.344 13.154,3.504 13.414,3.824 C13.664,4.134 13.784,4.594 13.784,5.194 Z M18.614,0.674 L18.614,8.544 L21.124,8.544 C21.564,8.544 21.964,8.494 22.334,8.404 C22.704,8.304 23.014,8.164 23.284,7.964 C23.544,7.774 23.744,7.534 23.894,7.244 C24.034,6.964 24.104,6.624 24.104,6.244 C24.104,5.694 23.944,5.264 23.624,4.954 C23.304,4.644 22.864,4.444 22.284,4.354 L22.284,4.304 C22.744,4.184 23.094,3.974 23.314,3.654 C23.544,3.334 23.654,2.984 23.654,2.594 C23.654,2.244 23.584,1.954 23.454,1.714 C23.324,1.464 23.134,1.264 22.904,1.114 C22.664,0.964 22.384,0.854 22.054,0.784 C21.714,0.704 21.354,0.674 20.954,0.674 L18.614,0.674 Z M20.774,4.034 L19.604,4.034 L19.604,1.464 L20.824,1.464 C21.434,1.464 21.894,1.554 22.204,1.744 C22.514,1.934 22.664,2.244 22.664,2.674 C22.664,3.114 22.524,3.454 22.234,3.684 C21.934,3.914 21.454,4.034 20.774,4.034 Z M20.974,7.754 L19.604,7.754 L19.604,4.774 L20.974,4.774 C21.674,4.774 22.204,4.894 22.574,5.114 C22.944,5.344 23.124,5.704 23.124,6.194 C23.124,6.724 22.934,7.124 22.564,7.374 C22.184,7.624 21.654,7.754 20.974,7.754 Z M25.484,2.714 L25.484,6.404 C25.484,7.164 25.634,7.724 25.914,8.114 C26.194,8.494 26.654,8.684 27.274,8.684 C27.684,8.684 28.034,8.594 28.334,8.404 C28.634,8.204 28.924,7.954 29.194,7.634 L29.234,7.634 L29.314,8.544 L30.134,8.544 L30.134,2.714 L29.144,2.714 L29.144,6.854 C28.864,7.194 28.614,7.444 28.384,7.604 C28.144,7.754 27.884,7.834 27.574,7.834 C27.194,7.834 26.914,7.714 26.744,7.474 C26.574,7.224 26.484,6.824 26.484,6.274 L26.484,2.714 L25.484,2.714 Z M32.604,1.514 C32.794,1.514 32.954,1.454 33.094,1.334 C33.224,1.214 33.284,1.064 33.284,0.874 C33.284,0.684 33.224,0.534 33.094,0.414 C32.954,0.294 32.794,0.244 32.604,0.244 C32.414,0.244 32.254,0.294 32.114,0.414 C31.984,0.534 31.924,0.684 31.924,0.874 C31.924,1.064 31.984,1.214 32.114,1.334 C32.254,1.454 32.414,1.514 32.604,1.514 Z M32.104,2.714 L32.104,8.544 L33.084,8.544 L33.084,2.714 L32.104,2.714 Z M35.054,0.004 L35.054,7.364 C35.054,7.804 35.134,8.124 35.294,8.354 C35.454,8.574 35.724,8.684 36.094,8.684 C36.234,8.684 36.344,8.684 36.434,8.664 C36.524,8.644 36.594,8.624 36.664,8.594 L36.524,7.844 C36.474,7.864 36.434,7.874 36.404,7.874 L36.314,7.874 C36.244,7.874 36.174,7.844 36.124,7.774 C36.064,7.714 36.034,7.604 36.034,7.444 L36.034,0.004 L35.054,0.004 Z M37.694,5.644 C37.694,6.614 37.914,7.364 38.344,7.894 C38.784,8.424 39.364,8.684 40.104,8.684 C40.444,8.684 40.774,8.604 41.074,8.444 C41.374,8.274 41.634,8.084 41.864,7.864 L41.904,7.864 L41.984,8.544 L42.804,8.544 L42.804,0.004 L41.804,0.004 L41.804,2.244 L41.854,3.244 C41.604,3.034 41.344,2.864 41.104,2.744 C40.854,2.624 40.564,2.564 40.224,2.564 C39.884,2.564 39.564,2.644 39.264,2.784 C38.964,2.924 38.694,3.134 38.464,3.394 C38.224,3.664 38.044,3.984 37.904,4.364 C37.764,4.744 37.694,5.164 37.694,5.644 Z M38.714,5.624 C38.714,5.294 38.754,4.984 38.844,4.714 C38.934,4.444 39.054,4.214 39.204,4.014 C39.354,3.814 39.534,3.664 39.734,3.554 C39.944,3.454 40.164,3.394 40.394,3.394 C40.634,3.394 40.864,3.444 41.094,3.534 C41.324,3.624 41.564,3.784 41.804,4.004 L41.804,7.054 C41.564,7.324 41.324,7.534 41.084,7.664 C40.844,7.794 40.594,7.864 40.324,7.864 C39.804,7.864 39.414,7.664 39.134,7.274 C38.854,6.884 38.714,6.334 38.714,5.624 Z M46.484,0.674 L48.154,8.544 L49.344,8.544 L50.504,3.804 C50.574,3.504 50.634,3.204 50.704,2.914 C50.774,2.614 50.844,2.324 50.904,2.014 L50.954,2.014 C51.014,2.324 51.074,2.614 51.134,2.914 C51.194,3.204 51.264,3.504 51.334,3.804 L52.524,8.544 L53.724,8.544 L55.354,0.674 L54.394,0.674 L53.564,4.954 C53.484,5.384 53.414,5.804 53.344,6.224 C53.264,6.644 53.194,7.064 53.124,7.504 L53.074,7.504 C52.984,7.064 52.884,6.644 52.784,6.214 C52.694,5.794 52.594,5.374 52.504,4.954 L51.404,0.674 L50.494,0.674 L49.404,4.954 C49.314,5.384 49.224,5.804 49.124,6.224 C49.034,6.644 48.944,7.064 48.854,7.504 L48.804,7.504 C48.734,7.064 48.654,6.644 48.574,6.224 C48.494,5.814 48.424,5.384 48.344,4.954 L47.524,0.674 L46.484,0.674 Z M56.194,5.644 C56.194,6.124 56.274,6.554 56.414,6.934 C56.564,7.314 56.764,7.634 57.014,7.894 C57.264,8.154 57.544,8.344 57.874,8.484 C58.194,8.624 58.534,8.684 58.894,8.684 C59.254,8.684 59.594,8.624 59.924,8.484 C60.244,8.344 60.534,8.154 60.784,7.894 C61.024,7.634 61.224,7.314 61.374,6.934 C61.524,6.554 61.594,6.124 61.594,5.644 C61.594,5.154 61.524,4.714 61.374,4.334 C61.224,3.954 61.024,3.634 60.784,3.374 C60.534,3.104 60.244,2.904 59.924,2.774 C59.594,2.634 59.254,2.564 58.894,2.564 C58.534,2.564 58.194,2.634 57.874,2.774 C57.544,2.904 57.264,3.104 57.014,3.374 C56.764,3.634 56.564,3.954 56.414,4.334 C56.274,4.714 56.194,5.154 56.194,5.644 Z M57.214,5.644 C57.214,5.304 57.254,4.994 57.334,4.724 C57.414,4.444 57.534,4.204 57.674,4.004 C57.824,3.804 58.004,3.654 58.214,3.544 C58.424,3.434 58.644,3.384 58.894,3.384 C59.144,3.384 59.374,3.434 59.584,3.544 C59.784,3.654 59.964,3.804 60.114,4.004 C60.264,4.204 60.374,4.444 60.454,4.724 C60.534,4.994 60.574,5.304 60.574,5.644 C60.574,5.974 60.534,6.284 60.454,6.554 C60.374,6.824 60.264,7.054 60.114,7.254 C59.964,7.454 59.784,7.604 59.584,7.714 C59.374,7.814 59.144,7.874 58.894,7.874 C58.644,7.874 58.424,7.814 58.214,7.714 C58.004,7.604 57.824,7.454 57.674,7.254 C57.534,7.054 57.414,6.824 57.334,6.554 C57.254,6.284 57.214,5.974 57.214,5.644 Z M63.134,2.714 L63.134,8.544 L64.114,8.544 L64.114,4.804 C64.314,4.304 64.554,3.954 64.814,3.754 C65.084,3.554 65.344,3.454 65.594,3.454 C65.714,3.454 65.814,3.464 65.894,3.484 C65.974,3.494 66.064,3.524 66.154,3.554 L66.344,2.684 C66.164,2.604 65.954,2.564 65.724,2.564 C65.384,2.564 65.074,2.674 64.794,2.894 C64.514,3.104 64.264,3.404 64.064,3.764 L64.034,3.764 L63.944,2.714 L63.134,2.714 Z M67.294,0.004 L67.294,7.364 C67.294,7.804 67.374,8.124 67.534,8.354 C67.694,8.574 67.964,8.684 68.344,8.684 C68.474,8.684 68.584,8.684 68.674,8.664 C68.764,8.644 68.844,8.624 68.904,8.594 L68.774,7.844 C68.714,7.864 68.674,7.874 68.644,7.874 L68.554,7.874 C68.484,7.874 68.424,7.844 68.364,7.774 C68.304,7.714 68.284,7.604 68.284,7.444 L68.284,0.004 L67.294,0.004 Z M69.934,5.644 C69.934,6.614 70.154,7.364 70.594,7.894 C71.024,8.424 71.614,8.684 72.344,8.684 C72.694,8.684 73.014,8.604 73.314,8.444 C73.614,8.274 73.884,8.084 74.114,7.864 L74.144,7.864 L74.234,8.544 L75.044,8.544 L75.044,0.004 L74.054,0.004 L74.054,2.244 L74.104,3.244 C73.844,3.034 73.594,2.864 73.344,2.744 C73.094,2.624 72.804,2.564 72.464,2.564 C72.134,2.564 71.814,2.644 71.504,2.784 C71.204,2.924 70.934,3.134 70.704,3.394 C70.474,3.664 70.284,3.984 70.144,4.364 C70.004,4.744 69.934,5.164 69.934,5.644 Z M70.954,5.624 C70.954,5.294 71.004,4.984 71.084,4.714 C71.174,4.444 71.294,4.214 71.444,4.014 C71.604,3.814 71.774,3.664 71.984,3.554 C72.184,3.454 72.404,3.394 72.634,3.394 C72.874,3.394 73.114,3.444 73.334,3.534 C73.564,3.624 73.804,3.784 74.054,4.004 L74.054,7.054 C73.814,7.324 73.574,7.534 73.334,7.664 C73.094,7.794 72.834,7.864 72.564,7.864 C72.054,7.864 71.654,7.664 71.374,7.274 C71.094,6.884 70.954,6.334 70.954,5.624 Z"></path>
                    </g>
                </g>
            </g>
        </g>
    </g>
</svg>